<mxfile host="app.diagrams.net" modified="2023-10-29T18:51:30.713Z" agent="Mozilla/5.0 (Windows NT 10.0; Win64; x64) AppleWebKit/537.36 (KHTML, like Gecko) Chrome/116.0.0.0 Safari/537.36 OPR/102.0.0.0 (Edition Yx GX)" etag="ADZAfX40aj3MMMNFly-I" version="22.0.8" type="device">
  <diagram name="Страница — 1" id="PkLhhXdjjKa_ItACIKk9">
    <mxGraphModel dx="1896" dy="1025" grid="1" gridSize="10" guides="1" tooltips="1" connect="1" arrows="1" fold="1" page="1" pageScale="1" pageWidth="827" pageHeight="1169" math="0" shadow="0">
      <root>
        <mxCell id="0" />
        <mxCell id="1" parent="0" />
        <mxCell id="CV_Ubwuvu3cbsaa69gCw-7" value="Освободить Василису Премудрую" style="swimlane;html=1;childLayout=stackLayout;resizeParent=1;resizeParentMax=0;horizontal=0;startSize=20;horizontalStack=0;whiteSpace=wrap;" vertex="1" parent="1">
          <mxGeometry x="160" y="200" width="1600" height="735" as="geometry" />
        </mxCell>
        <mxCell id="CV_Ubwuvu3cbsaa69gCw-9" value="Иван-царевич&lt;br&gt;" style="swimlane;html=1;startSize=20;horizontal=0;" vertex="1" parent="CV_Ubwuvu3cbsaa69gCw-7">
          <mxGeometry x="20" width="1580" height="190" as="geometry" />
        </mxCell>
        <mxCell id="CV_Ubwuvu3cbsaa69gCw-19" value="" style="points=[[0.145,0.145,0],[0.5,0,0],[0.855,0.145,0],[1,0.5,0],[0.855,0.855,0],[0.5,1,0],[0.145,0.855,0],[0,0.5,0]];shape=mxgraph.bpmn.event;html=1;verticalLabelPosition=bottom;labelBackgroundColor=#ffffff;verticalAlign=top;align=center;perimeter=ellipsePerimeter;outlineConnect=0;aspect=fixed;outline=standard;symbol=general;" vertex="1" parent="CV_Ubwuvu3cbsaa69gCw-9">
          <mxGeometry x="66.25" y="72.5" width="25" height="25" as="geometry" />
        </mxCell>
        <mxCell id="CV_Ubwuvu3cbsaa69gCw-22" style="edgeStyle=orthogonalEdgeStyle;rounded=0;orthogonalLoop=1;jettySize=auto;html=1;" edge="1" parent="CV_Ubwuvu3cbsaa69gCw-9" source="CV_Ubwuvu3cbsaa69gCw-19" target="CV_Ubwuvu3cbsaa69gCw-21">
          <mxGeometry relative="1" as="geometry" />
        </mxCell>
        <mxCell id="CV_Ubwuvu3cbsaa69gCw-21" value="Поиск дуба с ларцом" style="points=[[0.25,0,0],[0.5,0,0],[0.75,0,0],[1,0.25,0],[1,0.5,0],[1,0.75,0],[0.75,1,0],[0.5,1,0],[0.25,1,0],[0,0.75,0],[0,0.5,0],[0,0.25,0]];shape=mxgraph.bpmn.task;whiteSpace=wrap;rectStyle=rounded;size=10;html=1;container=1;expand=0;collapsible=0;taskMarker=manual;" vertex="1" parent="CV_Ubwuvu3cbsaa69gCw-9">
          <mxGeometry x="156.25" y="60" width="90" height="50" as="geometry" />
        </mxCell>
        <mxCell id="CV_Ubwuvu3cbsaa69gCw-24" value="" style="edgeStyle=orthogonalEdgeStyle;rounded=0;orthogonalLoop=1;jettySize=auto;html=1;" edge="1" parent="CV_Ubwuvu3cbsaa69gCw-9" source="CV_Ubwuvu3cbsaa69gCw-21" target="CV_Ubwuvu3cbsaa69gCw-23">
          <mxGeometry relative="1" as="geometry" />
        </mxCell>
        <mxCell id="CV_Ubwuvu3cbsaa69gCw-23" value="" style="points=[[0.145,0.145,0],[0.5,0,0],[0.855,0.145,0],[1,0.5,0],[0.855,0.855,0],[0.5,1,0],[0.145,0.855,0],[0,0.5,0]];shape=mxgraph.bpmn.event;html=1;verticalLabelPosition=bottom;labelBackgroundColor=#ffffff;verticalAlign=top;align=center;perimeter=ellipsePerimeter;outlineConnect=0;aspect=fixed;outline=throwing;symbol=general;" vertex="1" parent="CV_Ubwuvu3cbsaa69gCw-9">
          <mxGeometry x="188.75" y="145" width="25" height="25" as="geometry" />
        </mxCell>
        <mxCell id="CV_Ubwuvu3cbsaa69gCw-20" value="&lt;font style=&quot;font-size: 10px;&quot;&gt;Василиса Премудрая оказалась у Кощея Бессмертного&lt;/font&gt;" style="text;html=1;strokeColor=none;fillColor=none;align=center;verticalAlign=middle;whiteSpace=wrap;rounded=0;" vertex="1" parent="CV_Ubwuvu3cbsaa69gCw-9">
          <mxGeometry x="30" y="115" width="97.5" height="30" as="geometry" />
        </mxCell>
        <mxCell id="CV_Ubwuvu3cbsaa69gCw-55" value="Разбить яйцо" style="points=[[0.25,0,0],[0.5,0,0],[0.75,0,0],[1,0.25,0],[1,0.5,0],[1,0.75,0],[0.75,1,0],[0.5,1,0],[0.25,1,0],[0,0.75,0],[0,0.5,0],[0,0.25,0]];shape=mxgraph.bpmn.task;whiteSpace=wrap;rectStyle=rounded;size=10;html=1;container=1;expand=0;collapsible=0;taskMarker=manual;" vertex="1" parent="CV_Ubwuvu3cbsaa69gCw-9">
          <mxGeometry x="990" y="70" width="90" height="50" as="geometry" />
        </mxCell>
        <mxCell id="CV_Ubwuvu3cbsaa69gCw-64" style="edgeStyle=orthogonalEdgeStyle;rounded=0;orthogonalLoop=1;jettySize=auto;html=1;" edge="1" parent="CV_Ubwuvu3cbsaa69gCw-9" source="CV_Ubwuvu3cbsaa69gCw-60" target="CV_Ubwuvu3cbsaa69gCw-63">
          <mxGeometry relative="1" as="geometry" />
        </mxCell>
        <mxCell id="CV_Ubwuvu3cbsaa69gCw-60" value="" style="points=[[0.145,0.145,0],[0.5,0,0],[0.855,0.145,0],[1,0.5,0],[0.855,0.855,0],[0.5,1,0],[0.145,0.855,0],[0,0.5,0]];shape=mxgraph.bpmn.event;html=1;verticalLabelPosition=bottom;labelBackgroundColor=#ffffff;verticalAlign=top;align=center;perimeter=ellipsePerimeter;outlineConnect=0;aspect=fixed;outline=throwing;symbol=general;" vertex="1" parent="CV_Ubwuvu3cbsaa69gCw-9">
          <mxGeometry x="1140" y="82.5" width="25" height="25" as="geometry" />
        </mxCell>
        <mxCell id="CV_Ubwuvu3cbsaa69gCw-61" value="&lt;font style=&quot;font-size: 10px;&quot;&gt;В яйце лежит игла&lt;br&gt;&lt;/font&gt;" style="text;html=1;strokeColor=none;fillColor=none;align=center;verticalAlign=middle;whiteSpace=wrap;rounded=0;" vertex="1" parent="CV_Ubwuvu3cbsaa69gCw-9">
          <mxGeometry x="1103.75" y="42.5" width="97.5" height="30" as="geometry" />
        </mxCell>
        <mxCell id="CV_Ubwuvu3cbsaa69gCw-62" style="edgeStyle=orthogonalEdgeStyle;rounded=0;orthogonalLoop=1;jettySize=auto;html=1;entryX=0;entryY=0.5;entryDx=0;entryDy=0;entryPerimeter=0;" edge="1" parent="CV_Ubwuvu3cbsaa69gCw-9" source="CV_Ubwuvu3cbsaa69gCw-55" target="CV_Ubwuvu3cbsaa69gCw-60">
          <mxGeometry relative="1" as="geometry" />
        </mxCell>
        <mxCell id="CV_Ubwuvu3cbsaa69gCw-63" value="Сломать иглу" style="points=[[0.25,0,0],[0.5,0,0],[0.75,0,0],[1,0.25,0],[1,0.5,0],[1,0.75,0],[0.75,1,0],[0.5,1,0],[0.25,1,0],[0,0.75,0],[0,0.5,0],[0,0.25,0]];shape=mxgraph.bpmn.task;whiteSpace=wrap;rectStyle=rounded;size=10;html=1;container=1;expand=0;collapsible=0;taskMarker=manual;" vertex="1" parent="CV_Ubwuvu3cbsaa69gCw-9">
          <mxGeometry x="1230" y="70" width="90" height="50" as="geometry" />
        </mxCell>
        <mxCell id="CV_Ubwuvu3cbsaa69gCw-65" value="" style="points=[[0.145,0.145,0],[0.5,0,0],[0.855,0.145,0],[1,0.5,0],[0.855,0.855,0],[0.5,1,0],[0.145,0.855,0],[0,0.5,0]];shape=mxgraph.bpmn.event;html=1;verticalLabelPosition=bottom;labelBackgroundColor=#ffffff;verticalAlign=top;align=center;perimeter=ellipsePerimeter;outlineConnect=0;aspect=fixed;outline=throwing;symbol=general;" vertex="1" parent="CV_Ubwuvu3cbsaa69gCw-9">
          <mxGeometry x="1390" y="82.5" width="25" height="25" as="geometry" />
        </mxCell>
        <mxCell id="CV_Ubwuvu3cbsaa69gCw-66" value="&lt;font style=&quot;font-size: 10px;&quot;&gt;Кощей умер&lt;br&gt;&lt;/font&gt;" style="text;html=1;strokeColor=none;fillColor=none;align=center;verticalAlign=middle;whiteSpace=wrap;rounded=0;" vertex="1" parent="CV_Ubwuvu3cbsaa69gCw-9">
          <mxGeometry x="1353.75" y="40" width="97.5" height="30" as="geometry" />
        </mxCell>
        <mxCell id="CV_Ubwuvu3cbsaa69gCw-68" style="edgeStyle=orthogonalEdgeStyle;rounded=0;orthogonalLoop=1;jettySize=auto;html=1;entryX=0;entryY=0.5;entryDx=0;entryDy=0;entryPerimeter=0;" edge="1" parent="CV_Ubwuvu3cbsaa69gCw-9" source="CV_Ubwuvu3cbsaa69gCw-63" target="CV_Ubwuvu3cbsaa69gCw-65">
          <mxGeometry relative="1" as="geometry" />
        </mxCell>
        <mxCell id="CV_Ubwuvu3cbsaa69gCw-69" value="" style="points=[[0.145,0.145,0],[0.5,0,0],[0.855,0.145,0],[1,0.5,0],[0.855,0.855,0],[0.5,1,0],[0.145,0.855,0],[0,0.5,0]];shape=mxgraph.bpmn.event;html=1;verticalLabelPosition=bottom;labelBackgroundColor=#ffffff;verticalAlign=top;align=center;perimeter=ellipsePerimeter;outlineConnect=0;aspect=fixed;outline=end;symbol=terminate2;" vertex="1" parent="CV_Ubwuvu3cbsaa69gCw-9">
          <mxGeometry x="1474" y="80" width="30" height="30" as="geometry" />
        </mxCell>
        <mxCell id="CV_Ubwuvu3cbsaa69gCw-70" value="&lt;font style=&quot;font-size: 10px;&quot;&gt;Василиса Премудрая свободна&lt;br&gt;&lt;/font&gt;" style="text;html=1;strokeColor=none;fillColor=none;align=center;verticalAlign=middle;whiteSpace=wrap;rounded=0;" vertex="1" parent="CV_Ubwuvu3cbsaa69gCw-9">
          <mxGeometry x="1440.25" y="120" width="97.5" height="30" as="geometry" />
        </mxCell>
        <mxCell id="CV_Ubwuvu3cbsaa69gCw-71" style="edgeStyle=orthogonalEdgeStyle;rounded=0;orthogonalLoop=1;jettySize=auto;html=1;exitX=1;exitY=0.5;exitDx=0;exitDy=0;exitPerimeter=0;entryX=0;entryY=0.5;entryDx=0;entryDy=0;entryPerimeter=0;" edge="1" parent="CV_Ubwuvu3cbsaa69gCw-9" source="CV_Ubwuvu3cbsaa69gCw-65" target="CV_Ubwuvu3cbsaa69gCw-69">
          <mxGeometry relative="1" as="geometry" />
        </mxCell>
        <mxCell id="CV_Ubwuvu3cbsaa69gCw-31" value="Медведь&lt;br&gt;" style="swimlane;html=1;startSize=20;horizontal=0;" vertex="1" parent="CV_Ubwuvu3cbsaa69gCw-7">
          <mxGeometry x="20" y="190" width="1580" height="150" as="geometry" />
        </mxCell>
        <mxCell id="CV_Ubwuvu3cbsaa69gCw-32" value="" style="edgeStyle=orthogonalEdgeStyle;rounded=0;orthogonalLoop=1;jettySize=auto;html=1;" edge="1" parent="CV_Ubwuvu3cbsaa69gCw-31" target="CV_Ubwuvu3cbsaa69gCw-34">
          <mxGeometry relative="1" as="geometry">
            <mxPoint x="240" y="65" as="sourcePoint" />
          </mxGeometry>
        </mxCell>
        <mxCell id="CV_Ubwuvu3cbsaa69gCw-30" value="&lt;font style=&quot;font-size: 10px;&quot;&gt;Ларец упал с дуба, разбился и из него выбежал заяц&lt;/font&gt;" style="text;html=1;strokeColor=none;fillColor=none;align=center;verticalAlign=middle;whiteSpace=wrap;rounded=0;" vertex="1" parent="CV_Ubwuvu3cbsaa69gCw-31">
          <mxGeometry x="260" y="35" width="97.5" height="30" as="geometry" />
        </mxCell>
        <mxCell id="CV_Ubwuvu3cbsaa69gCw-25" value="Повалить дуб" style="points=[[0.25,0,0],[0.5,0,0],[0.75,0,0],[1,0.25,0],[1,0.5,0],[1,0.75,0],[0.75,1,0],[0.5,1,0],[0.25,1,0],[0,0.75,0],[0,0.5,0],[0,0.25,0]];shape=mxgraph.bpmn.task;whiteSpace=wrap;rectStyle=rounded;size=10;html=1;container=1;expand=0;collapsible=0;taskMarker=manual;" vertex="1" parent="CV_Ubwuvu3cbsaa69gCw-31">
          <mxGeometry x="156.25" y="65" width="90" height="50" as="geometry" />
        </mxCell>
        <mxCell id="CV_Ubwuvu3cbsaa69gCw-29" value="" style="edgeStyle=orthogonalEdgeStyle;rounded=0;orthogonalLoop=1;jettySize=auto;html=1;" edge="1" parent="CV_Ubwuvu3cbsaa69gCw-31" source="CV_Ubwuvu3cbsaa69gCw-25">
          <mxGeometry relative="1" as="geometry">
            <mxPoint x="296.25" y="90" as="targetPoint" />
          </mxGeometry>
        </mxCell>
        <mxCell id="CV_Ubwuvu3cbsaa69gCw-57" value="" style="points=[[0.145,0.145,0],[0.5,0,0],[0.855,0.145,0],[1,0.5,0],[0.855,0.855,0],[0.5,1,0],[0.145,0.855,0],[0,0.5,0]];shape=mxgraph.bpmn.event;html=1;verticalLabelPosition=bottom;labelBackgroundColor=#ffffff;verticalAlign=top;align=center;perimeter=ellipsePerimeter;outlineConnect=0;aspect=fixed;outline=catching;symbol=multiple;" vertex="1" parent="CV_Ubwuvu3cbsaa69gCw-31">
          <mxGeometry x="296.25" y="77.5" width="25" height="25" as="geometry" />
        </mxCell>
        <mxCell id="CV_Ubwuvu3cbsaa69gCw-10" value="Косой заяц&lt;br&gt;" style="swimlane;html=1;startSize=20;horizontal=0;" vertex="1" parent="CV_Ubwuvu3cbsaa69gCw-7">
          <mxGeometry x="20" y="340" width="1580" height="150" as="geometry" />
        </mxCell>
        <mxCell id="CV_Ubwuvu3cbsaa69gCw-39" style="edgeStyle=orthogonalEdgeStyle;rounded=0;orthogonalLoop=1;jettySize=auto;html=1;" edge="1" parent="CV_Ubwuvu3cbsaa69gCw-10" source="CV_Ubwuvu3cbsaa69gCw-36" target="CV_Ubwuvu3cbsaa69gCw-38">
          <mxGeometry relative="1" as="geometry" />
        </mxCell>
        <mxCell id="CV_Ubwuvu3cbsaa69gCw-36" value="Догнать зайца" style="points=[[0.25,0,0],[0.5,0,0],[0.75,0,0],[1,0.25,0],[1,0.5,0],[1,0.75,0],[0.75,1,0],[0.5,1,0],[0.25,1,0],[0,0.75,0],[0,0.5,0],[0,0.25,0]];shape=mxgraph.bpmn.task;whiteSpace=wrap;rectStyle=rounded;size=10;html=1;container=1;expand=0;collapsible=0;taskMarker=manual;" vertex="1" parent="CV_Ubwuvu3cbsaa69gCw-10">
          <mxGeometry x="263.75" y="45" width="90" height="50" as="geometry" />
        </mxCell>
        <mxCell id="CV_Ubwuvu3cbsaa69gCw-42" value="" style="edgeStyle=orthogonalEdgeStyle;rounded=0;orthogonalLoop=1;jettySize=auto;html=1;" edge="1" parent="CV_Ubwuvu3cbsaa69gCw-10" source="CV_Ubwuvu3cbsaa69gCw-38" target="CV_Ubwuvu3cbsaa69gCw-41">
          <mxGeometry relative="1" as="geometry" />
        </mxCell>
        <mxCell id="CV_Ubwuvu3cbsaa69gCw-38" value="Вскрыть зайца&lt;br&gt;" style="points=[[0.25,0,0],[0.5,0,0],[0.75,0,0],[1,0.25,0],[1,0.5,0],[1,0.75,0],[0.75,1,0],[0.5,1,0],[0.25,1,0],[0,0.75,0],[0,0.5,0],[0,0.25,0]];shape=mxgraph.bpmn.task;whiteSpace=wrap;rectStyle=rounded;size=10;html=1;container=1;expand=0;collapsible=0;taskMarker=manual;" vertex="1" parent="CV_Ubwuvu3cbsaa69gCw-10">
          <mxGeometry x="420" y="45" width="90" height="50" as="geometry" />
        </mxCell>
        <mxCell id="CV_Ubwuvu3cbsaa69gCw-40" value="&lt;font style=&quot;font-size: 10px;&quot;&gt;Утка вылетела из зайца&lt;br&gt;&lt;/font&gt;" style="text;html=1;strokeColor=none;fillColor=none;align=center;verticalAlign=middle;whiteSpace=wrap;rounded=0;" vertex="1" parent="CV_Ubwuvu3cbsaa69gCw-10">
          <mxGeometry x="550" y="11" width="97.5" height="30" as="geometry" />
        </mxCell>
        <mxCell id="CV_Ubwuvu3cbsaa69gCw-41" value="" style="points=[[0.145,0.145,0],[0.5,0,0],[0.855,0.145,0],[1,0.5,0],[0.855,0.855,0],[0.5,1,0],[0.145,0.855,0],[0,0.5,0]];shape=mxgraph.bpmn.event;html=1;verticalLabelPosition=bottom;labelBackgroundColor=#ffffff;verticalAlign=top;align=center;perimeter=ellipsePerimeter;outlineConnect=0;aspect=fixed;outline=throwing;symbol=general;" vertex="1" parent="CV_Ubwuvu3cbsaa69gCw-10">
          <mxGeometry x="586.25" y="57.5" width="25" height="25" as="geometry" />
        </mxCell>
        <mxCell id="CV_Ubwuvu3cbsaa69gCw-14" value="Селезнь&lt;br&gt;" style="swimlane;html=1;startSize=20;horizontal=0;" vertex="1" parent="CV_Ubwuvu3cbsaa69gCw-7">
          <mxGeometry x="20" y="490" width="1580" height="140" as="geometry" />
        </mxCell>
        <mxCell id="CV_Ubwuvu3cbsaa69gCw-45" value="Догнать утку" style="points=[[0.25,0,0],[0.5,0,0],[0.75,0,0],[1,0.25,0],[1,0.5,0],[1,0.75,0],[0.75,1,0],[0.5,1,0],[0.25,1,0],[0,0.75,0],[0,0.5,0],[0,0.25,0]];shape=mxgraph.bpmn.task;whiteSpace=wrap;rectStyle=rounded;size=10;html=1;container=1;expand=0;collapsible=0;taskMarker=manual;" vertex="1" parent="CV_Ubwuvu3cbsaa69gCw-14">
          <mxGeometry x="553" y="44" width="90" height="50" as="geometry" />
        </mxCell>
        <mxCell id="CV_Ubwuvu3cbsaa69gCw-47" value="Убить утку" style="points=[[0.25,0,0],[0.5,0,0],[0.75,0,0],[1,0.25,0],[1,0.5,0],[1,0.75,0],[0.75,1,0],[0.5,1,0],[0.25,1,0],[0,0.75,0],[0,0.5,0],[0,0.25,0]];shape=mxgraph.bpmn.task;whiteSpace=wrap;rectStyle=rounded;size=10;html=1;container=1;expand=0;collapsible=0;taskMarker=manual;" vertex="1" parent="CV_Ubwuvu3cbsaa69gCw-14">
          <mxGeometry x="706.25" y="44" width="90" height="50" as="geometry" />
        </mxCell>
        <mxCell id="CV_Ubwuvu3cbsaa69gCw-44" style="edgeStyle=orthogonalEdgeStyle;rounded=0;orthogonalLoop=1;jettySize=auto;html=1;" edge="1" parent="CV_Ubwuvu3cbsaa69gCw-14" source="CV_Ubwuvu3cbsaa69gCw-45" target="CV_Ubwuvu3cbsaa69gCw-47">
          <mxGeometry relative="1" as="geometry" />
        </mxCell>
        <mxCell id="CV_Ubwuvu3cbsaa69gCw-48" value="&lt;font style=&quot;font-size: 10px;&quot;&gt;Из утки в море выпало яйцо&lt;br&gt;&lt;/font&gt;" style="text;html=1;strokeColor=none;fillColor=none;align=center;verticalAlign=middle;whiteSpace=wrap;rounded=0;" vertex="1" parent="CV_Ubwuvu3cbsaa69gCw-14">
          <mxGeometry x="836.25" y="14" width="97.5" height="30" as="geometry" />
        </mxCell>
        <mxCell id="CV_Ubwuvu3cbsaa69gCw-46" value="" style="edgeStyle=orthogonalEdgeStyle;rounded=0;orthogonalLoop=1;jettySize=auto;html=1;" edge="1" parent="CV_Ubwuvu3cbsaa69gCw-14" source="CV_Ubwuvu3cbsaa69gCw-47">
          <mxGeometry relative="1" as="geometry">
            <mxPoint x="872.5" y="69" as="targetPoint" />
          </mxGeometry>
        </mxCell>
        <mxCell id="CV_Ubwuvu3cbsaa69gCw-59" value="" style="points=[[0.145,0.145,0],[0.5,0,0],[0.855,0.145,0],[1,0.5,0],[0.855,0.855,0],[0.5,1,0],[0.145,0.855,0],[0,0.5,0]];shape=mxgraph.bpmn.event;html=1;verticalLabelPosition=bottom;labelBackgroundColor=#ffffff;verticalAlign=top;align=center;perimeter=ellipsePerimeter;outlineConnect=0;aspect=fixed;outline=catching;symbol=multiple;" vertex="1" parent="CV_Ubwuvu3cbsaa69gCw-14">
          <mxGeometry x="872.5" y="57.5" width="25" height="25" as="geometry" />
        </mxCell>
        <mxCell id="CV_Ubwuvu3cbsaa69gCw-13" value="Щука&lt;br&gt;" style="swimlane;startSize=20;horizontal=0;html=1;whiteSpace=wrap;" vertex="1" parent="CV_Ubwuvu3cbsaa69gCw-7">
          <mxGeometry x="20" y="630" width="1580" height="105" as="geometry" />
        </mxCell>
        <mxCell id="CV_Ubwuvu3cbsaa69gCw-51" value="Достать яйцо&lt;br&gt;" style="points=[[0.25,0,0],[0.5,0,0],[0.75,0,0],[1,0.25,0],[1,0.5,0],[1,0.75,0],[0.75,1,0],[0.5,1,0],[0.25,1,0],[0,0.75,0],[0,0.5,0],[0,0.25,0]];shape=mxgraph.bpmn.task;whiteSpace=wrap;rectStyle=rounded;size=10;html=1;container=1;expand=0;collapsible=0;taskMarker=manual;" vertex="1" parent="CV_Ubwuvu3cbsaa69gCw-13">
          <mxGeometry x="840" y="30" width="90" height="50" as="geometry" />
        </mxCell>
        <mxCell id="CV_Ubwuvu3cbsaa69gCw-52" value="Отдать яйцо Царевичу" style="points=[[0.25,0,0],[0.5,0,0],[0.75,0,0],[1,0.25,0],[1,0.5,0],[1,0.75,0],[0.75,1,0],[0.5,1,0],[0.25,1,0],[0,0.75,0],[0,0.5,0],[0,0.25,0]];shape=mxgraph.bpmn.task;whiteSpace=wrap;rectStyle=rounded;size=10;html=1;container=1;expand=0;collapsible=0;taskMarker=manual;" vertex="1" parent="CV_Ubwuvu3cbsaa69gCw-13">
          <mxGeometry x="994.25" y="30" width="90" height="50" as="geometry" />
        </mxCell>
        <mxCell id="CV_Ubwuvu3cbsaa69gCw-53" style="edgeStyle=orthogonalEdgeStyle;rounded=0;orthogonalLoop=1;jettySize=auto;html=1;" edge="1" parent="CV_Ubwuvu3cbsaa69gCw-13" source="CV_Ubwuvu3cbsaa69gCw-51" target="CV_Ubwuvu3cbsaa69gCw-52">
          <mxGeometry relative="1" as="geometry" />
        </mxCell>
        <mxCell id="CV_Ubwuvu3cbsaa69gCw-26" style="edgeStyle=orthogonalEdgeStyle;rounded=0;orthogonalLoop=1;jettySize=auto;html=1;" edge="1" parent="CV_Ubwuvu3cbsaa69gCw-7" source="CV_Ubwuvu3cbsaa69gCw-23" target="CV_Ubwuvu3cbsaa69gCw-25">
          <mxGeometry relative="1" as="geometry" />
        </mxCell>
        <mxCell id="CV_Ubwuvu3cbsaa69gCw-37" style="edgeStyle=orthogonalEdgeStyle;rounded=0;orthogonalLoop=1;jettySize=auto;html=1;entryX=0.5;entryY=0;entryDx=0;entryDy=0;entryPerimeter=0;" edge="1" parent="CV_Ubwuvu3cbsaa69gCw-7" target="CV_Ubwuvu3cbsaa69gCw-36">
          <mxGeometry relative="1" as="geometry">
            <mxPoint x="328.75" y="292.5" as="sourcePoint" />
          </mxGeometry>
        </mxCell>
        <mxCell id="CV_Ubwuvu3cbsaa69gCw-50" style="edgeStyle=orthogonalEdgeStyle;rounded=0;orthogonalLoop=1;jettySize=auto;html=1;" edge="1" parent="CV_Ubwuvu3cbsaa69gCw-7" source="CV_Ubwuvu3cbsaa69gCw-41" target="CV_Ubwuvu3cbsaa69gCw-45">
          <mxGeometry relative="1" as="geometry" />
        </mxCell>
        <mxCell id="CV_Ubwuvu3cbsaa69gCw-54" style="edgeStyle=orthogonalEdgeStyle;rounded=0;orthogonalLoop=1;jettySize=auto;html=1;entryX=0.5;entryY=0;entryDx=0;entryDy=0;entryPerimeter=0;" edge="1" parent="CV_Ubwuvu3cbsaa69gCw-7" target="CV_Ubwuvu3cbsaa69gCw-51">
          <mxGeometry relative="1" as="geometry">
            <mxPoint x="905" y="571.5" as="sourcePoint" />
          </mxGeometry>
        </mxCell>
        <mxCell id="CV_Ubwuvu3cbsaa69gCw-56" style="edgeStyle=orthogonalEdgeStyle;rounded=0;orthogonalLoop=1;jettySize=auto;html=1;entryX=0.5;entryY=1;entryDx=0;entryDy=0;entryPerimeter=0;" edge="1" parent="CV_Ubwuvu3cbsaa69gCw-7" source="CV_Ubwuvu3cbsaa69gCw-52" target="CV_Ubwuvu3cbsaa69gCw-55">
          <mxGeometry relative="1" as="geometry">
            <Array as="points">
              <mxPoint x="1055" y="530" />
              <mxPoint x="1055" y="530" />
            </Array>
          </mxGeometry>
        </mxCell>
      </root>
    </mxGraphModel>
  </diagram>
</mxfile>
